<?xml version="1.0" standalone="no"?>
<!DOCTYPE svg PUBLIC "-//W3C//DTD SVG 20010904//EN"
 "http://www.w3.org/TR/2001/REC-SVG-20010904/DTD/svg10.dtd">
<svg version="1.0" xmlns="http://www.w3.org/2000/svg"
 width="1200.000000pt" height="630.000000pt" viewBox="0 0 1200.000000 630.000000"
 preserveAspectRatio="xMidYMid meet">

<g transform="translate(0.000000,630.000000) scale(0.100000,-0.100000)"
fill="#000000" stroke="none">
<path d="M7238 4618 c-70 -19 -67 6 -59 -488 7 -426 8 -447 29 -501 22 -56 96
-144 140 -168 l22 -12 -2 588 -3 588 -45 2 c-25 1 -62 -3 -82 -9z"/>
<path d="M6114 4594 c-9 -35 1 -127 17 -152 21 -33 101 -72 148 -72 51 0 57
12 41 81 -15 62 -66 124 -125 150 -55 25 -73 24 -81 -7z"/>
<path d="M6377 4613 c-4 -3 -7 -34 -7 -67 0 -80 22 -123 79 -153 51 -27 128
-31 137 -9 10 26 -26 125 -59 163 -44 50 -129 88 -150 66z"/>
<path d="M7898 4315 c-63 -20 -133 -91 -178 -180 -31 -61 -35 -78 -34 -140 1
-87 26 -150 105 -255 99 -134 209 -241 209 -204 0 4 -18 39 -39 78 -52 94
-101 241 -101 302 0 51 32 133 71 182 78 100 204 75 272 -53 33 -62 30 -185
-7 -289 -64 -180 -124 -274 -200 -313 -85 -44 -240 13 -368 137 -51 49 -75 66
-80 57 -34 -50 -40 -71 -29 -106 26 -89 180 -213 334 -270 77 -28 194 -29 254
-1 91 41 181 161 245 328 111 284 57 519 -150 655 -119 78 -214 100 -304 72z"/>
<path d="M4803 4243 c-13 -2 -23 -6 -23 -9 0 -2 11 -41 24 -86 32 -112 50
-259 44 -376 -13 -273 -170 -375 -549 -358 -220 10 -304 39 -400 137 -76 77
-103 146 -95 243 14 185 144 286 350 274 72 -5 173 -32 269 -73 29 -12 20 21
-14 49 -17 14 -65 43 -107 63 -74 36 -82 38 -198 41 -195 6 -309 -30 -396
-127 -54 -60 -77 -119 -85 -216 -28 -355 262 -550 787 -532 311 10 475 90 561
272 16 33 29 67 29 75 1 38 16 43 61 18 37 -19 59 -23 134 -23 77 0 99 4 150
28 33 16 69 37 80 47 20 19 21 19 65 -10 55 -37 157 -70 214 -70 25 0 62 10
91 24 35 18 53 22 66 16 74 -40 519 -61 606 -28 31 11 54 13 85 7 24 -5 107
-12 184 -15 133 -7 144 -6 187 15 68 33 100 102 105 227 5 105 -14 292 -31
313 -17 20 -128 71 -154 71 l-23 0 0 -254 0 -255 -26 -20 c-22 -18 -41 -21
-113 -21 -47 0 -91 4 -98 8 -9 6 -8 20 4 62 12 43 14 84 10 204 -6 194 -11
207 -92 247 -34 17 -73 29 -86 27 l-24 -3 4 -237 c4 -268 2 -279 -66 -297 -76
-21 -409 -8 -451 18 -7 4 -8 19 -2 46 20 85 5 358 -22 408 -12 23 -111 70
-136 65 -16 -3 -17 -22 -17 -218 0 -240 -6 -267 -60 -282 -26 -7 -153 6 -163
17 -2 2 2 21 9 42 25 74 6 348 -28 385 -19 21 -97 58 -123 58 -19 0 -20 -6
-20 -197 0 -179 -2 -201 -20 -230 -10 -18 -30 -39 -43 -47 -34 -23 -115 -36
-180 -29 -52 5 -57 8 -57 31 0 53 -32 240 -51 291 -27 77 -79 160 -111 177
-15 8 -28 13 -30 13 -2 -1 -13 -4 -25 -6z"/>
<path d="M6794 3456 c-4 -9 -4 -44 -2 -76 7 -98 63 -151 161 -154 l52 -1 -2
48 c-3 90 -80 180 -166 194 -29 4 -38 2 -43 -11z"/>
<path d="M7054 3455 c-4 -9 -4 -45 -2 -81 4 -61 7 -69 40 -100 57 -52 161 -73
173 -34 11 35 -22 124 -61 164 -56 58 -137 85 -150 51z"/>
<path d="M5047 3035 c-21 -7 -41 -15 -43 -18 -3 -3 -6 -303 -6 -668 l-1 -664
76 0 c120 0 111 -31 115 414 l3 379 35 27 c56 43 121 67 185 68 69 2 103 -18
134 -79 19 -36 20 -64 25 -414 3 -206 9 -381 13 -387 11 -18 147 -17 171 0 17
12 18 38 14 413 -4 337 -7 407 -21 450 -24 72 -56 115 -107 144 -40 22 -56 25
-155 25 -99 0 -116 -3 -170 -28 -32 -15 -74 -39 -92 -53 l-33 -25 0 200 c0
110 -3 206 -6 215 -8 20 -83 21 -137 1z"/>
<path d="M6075 3035 c-68 -36 -119 -107 -131 -182 -9 -57 10 -70 82 -54 101
23 149 89 142 196 -3 47 -5 50 -33 53 -16 1 -43 -5 -60 -13z"/>
<path d="M6475 3036 c-52 -23 -85 -71 -85 -124 0 -26 -3 -84 -7 -129 l-6 -82
-63 -21 c-66 -22 -94 -48 -94 -87 0 -29 14 -37 80 -43 l55 -5 6 -335 c6 -372
11 -408 72 -477 66 -75 183 -96 275 -49 56 28 152 112 152 132 0 17 -3 17 -64
-1 -78 -24 -149 -20 -184 10 -51 43 -57 86 -57 420 l0 300 45 2 c174 10 187
12 235 55 58 51 81 93 64 115 -11 13 -39 14 -179 11 l-165 -3 0 160 0 160 -25
2 c-14 2 -39 -3 -55 -11z"/>
<path d="M3656 2729 c-61 -15 -67 -23 -50 -72 9 -23 71 -235 140 -471 68 -236
133 -444 145 -462 20 -32 23 -34 80 -34 71 0 92 9 107 47 16 38 135 478 158
581 11 45 21 82 25 82 3 0 11 -30 19 -67 17 -91 102 -429 130 -522 14 -47 32
-85 50 -102 26 -26 32 -28 81 -22 30 3 62 10 71 15 20 10 34 54 192 601 63
219 113 404 110 411 -5 13 -75 26 -141 26 -29 0 -33 -4 -41 -37 -6 -21 -31
-128 -57 -238 -48 -205 -118 -476 -134 -517 -7 -17 -10 -19 -14 -8 -30 82 -89
291 -142 504 -36 142 -70 265 -76 272 -14 17 -60 18 -82 1 -12 -8 -44 -119
-107 -367 -49 -195 -95 -373 -103 -395 -17 -49 -10 -71 -87 265 -57 248 -97
412 -121 488 -10 31 -12 32 -62 31 -29 -1 -70 -5 -91 -10z"/>
<path d="M7129 2717 c-208 -86 -323 -265 -306 -480 8 -107 32 -190 92 -312 62
-128 124 -204 199 -243 71 -37 183 -37 274 0 97 40 170 87 243 158 84 82 102
131 69 185 -12 19 -24 35 -27 35 -3 0 -35 -28 -73 -62 -37 -35 -96 -80 -130
-100 -127 -75 -216 -73 -295 7 -50 50 -77 99 -130 240 -34 88 -38 111 -39 190
-1 121 31 182 118 227 79 41 152 5 211 -104 43 -78 44 -143 6 -258 -18 -52
-50 -128 -72 -169 -58 -105 -38 -109 55 -10 213 226 266 376 188 527 -41 79
-105 149 -157 173 -58 27 -155 25 -226 -4z"/>
<path d="M7927 2729 c-82 -19 -152 -72 -190 -144 -16 -30 -21 -57 -21 -110 1
-120 44 -176 246 -323 65 -46 131 -98 148 -115 54 -56 52 -136 -5 -186 -19
-17 -51 -33 -71 -37 -54 -10 -151 1 -226 27 -77 26 -91 21 -109 -41 -20 -67
16 -99 139 -126 132 -28 290 -10 379 41 96 57 150 163 140 277 -10 109 -59
165 -269 312 -162 112 -190 154 -153 226 35 67 124 84 252 46 49 -15 97 -24
106 -20 20 7 41 67 32 93 -8 28 -60 57 -130 76 -64 16 -206 19 -268 4z"/>
<path d="M6017 2715 c-22 -7 -50 -24 -63 -36 l-24 -23 2 -485 3 -486 40 -3
c22 -2 59 -1 81 3 34 5 44 11 54 36 9 21 13 143 15 447 1 229 5 450 10 490 l8
72 -44 0 c-24 -1 -61 -7 -82 -15z"/>
</g>
</svg>
